<mxfile host="app.diagrams.net" agent="Mozilla/5.0 (Windows NT 10.0; Win64; x64) AppleWebKit/537.36 (KHTML, like Gecko) Chrome/136.0.0.0 Safari/537.36" version="26.3.0">
  <diagram name="Page-1" id="qZq6fVO71abzBFDqmk9O">
    <mxGraphModel dx="9249" dy="3465" grid="1" gridSize="10" guides="1" tooltips="1" connect="1" arrows="1" fold="1" page="1" pageScale="1" pageWidth="827" pageHeight="1169" math="0" shadow="0">
      <root>
        <mxCell id="0" />
        <mxCell id="1" parent="0" />
        <mxCell id="axGKSYeIDC3gpvNhHt54-1" value="&amp;lt;&amp;lt;Entity&amp;gt;&amp;gt;&lt;div&gt;Riddle&lt;/div&gt;" style="swimlane;fontStyle=1;align=center;verticalAlign=top;childLayout=stackLayout;horizontal=1;startSize=41;horizontalStack=0;resizeParent=1;resizeParentMax=0;resizeLast=0;collapsible=1;marginBottom=0;whiteSpace=wrap;html=1;fillColor=#9AC7BF;" collapsed="1" vertex="1" parent="1">
          <mxGeometry x="-6616" y="-1724" width="100" height="41" as="geometry">
            <mxRectangle x="-6091.5" y="-1320" width="314.5" height="463" as="alternateBounds" />
          </mxGeometry>
        </mxCell>
        <mxCell id="axGKSYeIDC3gpvNhHt54-2" value="+correct_answer: String&lt;div&gt;&lt;br&gt;&lt;/div&gt;" style="text;strokeColor=none;fillColor=none;align=left;verticalAlign=top;spacingLeft=4;spacingRight=4;overflow=hidden;rotatable=0;points=[[0,0.5],[1,0.5]];portConstraint=eastwest;whiteSpace=wrap;html=1;" vertex="1" parent="axGKSYeIDC3gpvNhHt54-1">
          <mxGeometry y="41" width="314.5" height="24" as="geometry" />
        </mxCell>
        <mxCell id="axGKSYeIDC3gpvNhHt54-3" value="+riddle_type: RiddleType&amp;nbsp;&lt;div&gt;&lt;br&gt;&lt;/div&gt;&lt;div&gt;&lt;br&gt;&lt;/div&gt;" style="text;strokeColor=none;fillColor=none;align=left;verticalAlign=top;spacingLeft=4;spacingRight=4;overflow=hidden;rotatable=0;points=[[0,0.5],[1,0.5]];portConstraint=eastwest;whiteSpace=wrap;html=1;" vertex="1" parent="axGKSYeIDC3gpvNhHt54-1">
          <mxGeometry y="65" width="314.5" height="26" as="geometry" />
        </mxCell>
        <mxCell id="axGKSYeIDC3gpvNhHt54-4" value="+answered : boolean&lt;div&gt;&lt;br&gt;&lt;/div&gt;&lt;div&gt;&lt;br&gt;&lt;/div&gt;" style="text;strokeColor=none;fillColor=none;align=left;verticalAlign=top;spacingLeft=4;spacingRight=4;overflow=hidden;rotatable=0;points=[[0,0.5],[1,0.5]];portConstraint=eastwest;whiteSpace=wrap;html=1;" vertex="1" parent="axGKSYeIDC3gpvNhHt54-1">
          <mxGeometry y="91" width="314.5" height="26" as="geometry" />
        </mxCell>
        <mxCell id="axGKSYeIDC3gpvNhHt54-5" value="+riddle_content : String&lt;div&gt;&lt;br&gt;&lt;/div&gt;" style="text;strokeColor=none;fillColor=none;align=left;verticalAlign=top;spacingLeft=4;spacingRight=4;overflow=hidden;rotatable=0;points=[[0,0.5],[1,0.5]];portConstraint=eastwest;whiteSpace=wrap;html=1;" vertex="1" parent="axGKSYeIDC3gpvNhHt54-1">
          <mxGeometry y="117" width="314.5" height="26" as="geometry" />
        </mxCell>
        <mxCell id="axGKSYeIDC3gpvNhHt54-6" value="+id: Integer&lt;div&gt;&lt;br&gt;&lt;/div&gt;" style="text;strokeColor=none;fillColor=none;align=left;verticalAlign=top;spacingLeft=4;spacingRight=4;overflow=hidden;rotatable=0;points=[[0,0.5],[1,0.5]];portConstraint=eastwest;whiteSpace=wrap;html=1;" vertex="1" parent="axGKSYeIDC3gpvNhHt54-1">
          <mxGeometry y="143" width="314.5" height="26" as="geometry" />
        </mxCell>
        <mxCell id="axGKSYeIDC3gpvNhHt54-7" value="" style="line;strokeWidth=1;fillColor=none;align=left;verticalAlign=middle;spacingTop=-1;spacingLeft=3;spacingRight=3;rotatable=0;labelPosition=right;points=[];portConstraint=eastwest;strokeColor=inherit;" vertex="1" parent="axGKSYeIDC3gpvNhHt54-1">
          <mxGeometry y="169" width="314.5" height="8" as="geometry" />
        </mxCell>
        <mxCell id="axGKSYeIDC3gpvNhHt54-8" value="+Riddle(): void" style="text;strokeColor=none;fillColor=none;align=left;verticalAlign=top;spacingLeft=4;spacingRight=4;overflow=hidden;rotatable=0;points=[[0,0.5],[1,0.5]];portConstraint=eastwest;whiteSpace=wrap;html=1;" vertex="1" parent="axGKSYeIDC3gpvNhHt54-1">
          <mxGeometry y="177" width="314.5" height="26" as="geometry" />
        </mxCell>
        <mxCell id="axGKSYeIDC3gpvNhHt54-9" value="+getCorrectAnswer(): String" style="text;strokeColor=none;fillColor=none;align=left;verticalAlign=top;spacingLeft=4;spacingRight=4;overflow=hidden;rotatable=0;points=[[0,0.5],[1,0.5]];portConstraint=eastwest;whiteSpace=wrap;html=1;" vertex="1" parent="axGKSYeIDC3gpvNhHt54-1">
          <mxGeometry y="203" width="314.5" height="26" as="geometry" />
        </mxCell>
        <mxCell id="axGKSYeIDC3gpvNhHt54-10" value="+setCorrectAnswer(correctAnswer: String): void" style="text;strokeColor=none;fillColor=none;align=left;verticalAlign=top;spacingLeft=4;spacingRight=4;overflow=hidden;rotatable=0;points=[[0,0.5],[1,0.5]];portConstraint=eastwest;whiteSpace=wrap;html=1;" vertex="1" parent="axGKSYeIDC3gpvNhHt54-1">
          <mxGeometry y="229" width="314.5" height="26" as="geometry" />
        </mxCell>
        <mxCell id="axGKSYeIDC3gpvNhHt54-11" value="+getRiddleType(): RiddleType&amp;nbsp;&lt;div&gt;&lt;br&gt;&lt;/div&gt;&lt;div&gt;&lt;br&gt;&lt;/div&gt;)" style="text;strokeColor=none;fillColor=none;align=left;verticalAlign=top;spacingLeft=4;spacingRight=4;overflow=hidden;rotatable=0;points=[[0,0.5],[1,0.5]];portConstraint=eastwest;whiteSpace=wrap;html=1;" vertex="1" parent="axGKSYeIDC3gpvNhHt54-1">
          <mxGeometry y="255" width="314.5" height="26" as="geometry" />
        </mxCell>
        <mxCell id="axGKSYeIDC3gpvNhHt54-12" value="+setRiddleType(riddleType: RiddleType): void&amp;nbsp;&lt;div&gt;&lt;br&gt;&lt;/div&gt;&lt;div&gt;&lt;br&gt;&lt;/div&gt;)" style="text;strokeColor=none;fillColor=none;align=left;verticalAlign=top;spacingLeft=4;spacingRight=4;overflow=hidden;rotatable=0;points=[[0,0.5],[1,0.5]];portConstraint=eastwest;whiteSpace=wrap;html=1;" vertex="1" parent="axGKSYeIDC3gpvNhHt54-1">
          <mxGeometry y="281" width="314.5" height="26" as="geometry" />
        </mxCell>
        <mxCell id="axGKSYeIDC3gpvNhHt54-13" value="+getAnswered(): Boolean" style="text;strokeColor=none;fillColor=none;align=left;verticalAlign=top;spacingLeft=4;spacingRight=4;overflow=hidden;rotatable=0;points=[[0,0.5],[1,0.5]];portConstraint=eastwest;whiteSpace=wrap;html=1;" vertex="1" parent="axGKSYeIDC3gpvNhHt54-1">
          <mxGeometry y="307" width="314.5" height="26" as="geometry" />
        </mxCell>
        <mxCell id="axGKSYeIDC3gpvNhHt54-14" value="+setAnswered(answered: Boolean): void" style="text;strokeColor=none;fillColor=none;align=left;verticalAlign=top;spacingLeft=4;spacingRight=4;overflow=hidden;rotatable=0;points=[[0,0.5],[1,0.5]];portConstraint=eastwest;whiteSpace=wrap;html=1;" vertex="1" parent="axGKSYeIDC3gpvNhHt54-1">
          <mxGeometry y="333" width="314.5" height="26" as="geometry" />
        </mxCell>
        <mxCell id="axGKSYeIDC3gpvNhHt54-15" value="+getRiddleContent(): String" style="text;strokeColor=none;fillColor=none;align=left;verticalAlign=top;spacingLeft=4;spacingRight=4;overflow=hidden;rotatable=0;points=[[0,0.5],[1,0.5]];portConstraint=eastwest;whiteSpace=wrap;html=1;" vertex="1" parent="axGKSYeIDC3gpvNhHt54-1">
          <mxGeometry y="359" width="314.5" height="26" as="geometry" />
        </mxCell>
        <mxCell id="axGKSYeIDC3gpvNhHt54-16" value="+setRiddleContent(riddleContent: String): void" style="text;strokeColor=none;fillColor=none;align=left;verticalAlign=top;spacingLeft=4;spacingRight=4;overflow=hidden;rotatable=0;points=[[0,0.5],[1,0.5]];portConstraint=eastwest;whiteSpace=wrap;html=1;" vertex="1" parent="axGKSYeIDC3gpvNhHt54-1">
          <mxGeometry y="385" width="314.5" height="26" as="geometry" />
        </mxCell>
        <mxCell id="axGKSYeIDC3gpvNhHt54-17" value="+getId(): Integer" style="text;strokeColor=none;fillColor=none;align=left;verticalAlign=top;spacingLeft=4;spacingRight=4;overflow=hidden;rotatable=0;points=[[0,0.5],[1,0.5]];portConstraint=eastwest;whiteSpace=wrap;html=1;" vertex="1" parent="axGKSYeIDC3gpvNhHt54-1">
          <mxGeometry y="411" width="314.5" height="26" as="geometry" />
        </mxCell>
        <mxCell id="axGKSYeIDC3gpvNhHt54-18" value="+setId(id: Integer): void" style="text;strokeColor=none;fillColor=none;align=left;verticalAlign=top;spacingLeft=4;spacingRight=4;overflow=hidden;rotatable=0;points=[[0,0.5],[1,0.5]];portConstraint=eastwest;whiteSpace=wrap;html=1;" vertex="1" parent="axGKSYeIDC3gpvNhHt54-1">
          <mxGeometry y="437" width="314.5" height="26" as="geometry" />
        </mxCell>
        <mxCell id="axGKSYeIDC3gpvNhHt54-19" value="1" style="text;html=1;align=center;verticalAlign=middle;resizable=0;points=[];autosize=1;strokeColor=none;fillColor=none;" vertex="1" parent="1">
          <mxGeometry x="-6115" y="-1812" width="30" height="30" as="geometry" />
        </mxCell>
        <mxCell id="axGKSYeIDC3gpvNhHt54-20" value="&lt;div&gt;&amp;lt;&amp;lt;Entity&amp;gt;&amp;gt;&lt;/div&gt;Account" style="swimlane;fontStyle=1;align=center;verticalAlign=top;childLayout=stackLayout;horizontal=1;startSize=37;horizontalStack=0;resizeParent=1;resizeParentMax=0;resizeLast=0;collapsible=1;marginBottom=0;whiteSpace=wrap;html=1;fillColor=#9AC7BF;" collapsed="1" vertex="1" parent="1">
          <mxGeometry x="-5946" y="-1951" width="100" height="40" as="geometry">
            <mxRectangle x="-4520" y="-1312" width="230" height="615" as="alternateBounds" />
          </mxGeometry>
        </mxCell>
        <mxCell id="axGKSYeIDC3gpvNhHt54-21" value="+name: String&lt;div&gt;&lt;br&gt;&lt;/div&gt;" style="text;strokeColor=none;fillColor=none;align=left;verticalAlign=top;spacingLeft=4;spacingRight=4;overflow=hidden;rotatable=0;points=[[0,0.5],[1,0.5]];portConstraint=eastwest;whiteSpace=wrap;html=1;" vertex="1" parent="axGKSYeIDC3gpvNhHt54-20">
          <mxGeometry y="37" width="230" height="24" as="geometry" />
        </mxCell>
        <mxCell id="axGKSYeIDC3gpvNhHt54-22" value="+password: String&lt;div&gt;&lt;br&gt;&lt;/div&gt;&lt;div&gt;&lt;br&gt;&lt;/div&gt;" style="text;strokeColor=none;fillColor=none;align=left;verticalAlign=top;spacingLeft=4;spacingRight=4;overflow=hidden;rotatable=0;points=[[0,0.5],[1,0.5]];portConstraint=eastwest;whiteSpace=wrap;html=1;" vertex="1" parent="axGKSYeIDC3gpvNhHt54-20">
          <mxGeometry y="61" width="230" height="26" as="geometry" />
        </mxCell>
        <mxCell id="axGKSYeIDC3gpvNhHt54-23" value="+email: String&lt;div&gt;&lt;br&gt;&lt;/div&gt;&lt;div&gt;&lt;br&gt;&lt;/div&gt;" style="text;strokeColor=none;fillColor=none;align=left;verticalAlign=top;spacingLeft=4;spacingRight=4;overflow=hidden;rotatable=0;points=[[0,0.5],[1,0.5]];portConstraint=eastwest;whiteSpace=wrap;html=1;" vertex="1" parent="axGKSYeIDC3gpvNhHt54-20">
          <mxGeometry y="87" width="230" height="26" as="geometry" />
        </mxCell>
        <mxCell id="axGKSYeIDC3gpvNhHt54-24" value="+id: Integer&lt;div&gt;&lt;br&gt;&lt;/div&gt;" style="text;strokeColor=none;fillColor=none;align=left;verticalAlign=top;spacingLeft=4;spacingRight=4;overflow=hidden;rotatable=0;points=[[0,0.5],[1,0.5]];portConstraint=eastwest;whiteSpace=wrap;html=1;" vertex="1" parent="axGKSYeIDC3gpvNhHt54-20">
          <mxGeometry y="113" width="230" height="26" as="geometry" />
        </mxCell>
        <mxCell id="axGKSYeIDC3gpvNhHt54-25" value="+exists: boolean&lt;div&gt;&lt;br&gt;&lt;/div&gt;" style="text;strokeColor=none;fillColor=none;align=left;verticalAlign=top;spacingLeft=4;spacingRight=4;overflow=hidden;rotatable=0;points=[[0,0.5],[1,0.5]];portConstraint=eastwest;whiteSpace=wrap;html=1;" vertex="1" parent="axGKSYeIDC3gpvNhHt54-20">
          <mxGeometry y="139" width="230" height="26" as="geometry" />
        </mxCell>
        <mxCell id="axGKSYeIDC3gpvNhHt54-26" value="+role: String&lt;div&gt;&lt;br&gt;&lt;/div&gt;&lt;div&gt;&lt;br&gt;&lt;/div&gt;" style="text;strokeColor=none;fillColor=none;align=left;verticalAlign=top;spacingLeft=4;spacingRight=4;overflow=hidden;rotatable=0;points=[[0,0.5],[1,0.5]];portConstraint=eastwest;whiteSpace=wrap;html=1;" vertex="1" parent="axGKSYeIDC3gpvNhHt54-20">
          <mxGeometry y="165" width="230" height="26" as="geometry" />
        </mxCell>
        <mxCell id="axGKSYeIDC3gpvNhHt54-27" value="&lt;div&gt;+chosen_story: Story&lt;/div&gt;" style="text;strokeColor=none;fillColor=none;align=left;verticalAlign=top;spacingLeft=4;spacingRight=4;overflow=hidden;rotatable=0;points=[[0,0.5],[1,0.5]];portConstraint=eastwest;whiteSpace=wrap;html=1;" vertex="1" parent="axGKSYeIDC3gpvNhHt54-20">
          <mxGeometry y="191" width="230" height="26" as="geometry" />
        </mxCell>
        <mxCell id="axGKSYeIDC3gpvNhHt54-28" value="" style="line;strokeWidth=1;fillColor=none;align=left;verticalAlign=middle;spacingTop=-1;spacingLeft=3;spacingRight=3;rotatable=0;labelPosition=right;points=[];portConstraint=eastwest;strokeColor=inherit;" vertex="1" parent="axGKSYeIDC3gpvNhHt54-20">
          <mxGeometry y="217" width="230" height="8" as="geometry" />
        </mxCell>
        <mxCell id="axGKSYeIDC3gpvNhHt54-29" value="+Account(): void" style="text;strokeColor=none;fillColor=none;align=left;verticalAlign=top;spacingLeft=4;spacingRight=4;overflow=hidden;rotatable=0;points=[[0,0.5],[1,0.5]];portConstraint=eastwest;whiteSpace=wrap;html=1;" vertex="1" parent="axGKSYeIDC3gpvNhHt54-20">
          <mxGeometry y="225" width="230" height="26" as="geometry" />
        </mxCell>
        <mxCell id="axGKSYeIDC3gpvNhHt54-30" value="+getName(): String&lt;div&gt;&lt;br&gt;&lt;/div&gt;&lt;div&gt;&lt;br&gt;&lt;/div&gt;" style="text;strokeColor=none;fillColor=none;align=left;verticalAlign=top;spacingLeft=4;spacingRight=4;overflow=hidden;rotatable=0;points=[[0,0.5],[1,0.5]];portConstraint=eastwest;whiteSpace=wrap;html=1;" vertex="1" parent="axGKSYeIDC3gpvNhHt54-20">
          <mxGeometry y="251" width="230" height="26" as="geometry" />
        </mxCell>
        <mxCell id="axGKSYeIDC3gpvNhHt54-31" value="+setName(name : String): void" style="text;strokeColor=none;fillColor=none;align=left;verticalAlign=top;spacingLeft=4;spacingRight=4;overflow=hidden;rotatable=0;points=[[0,0.5],[1,0.5]];portConstraint=eastwest;whiteSpace=wrap;html=1;" vertex="1" parent="axGKSYeIDC3gpvNhHt54-20">
          <mxGeometry y="277" width="230" height="26" as="geometry" />
        </mxCell>
        <mxCell id="axGKSYeIDC3gpvNhHt54-32" value="+getPassword(): String" style="text;strokeColor=none;fillColor=none;align=left;verticalAlign=top;spacingLeft=4;spacingRight=4;overflow=hidden;rotatable=0;points=[[0,0.5],[1,0.5]];portConstraint=eastwest;whiteSpace=wrap;html=1;" vertex="1" parent="axGKSYeIDC3gpvNhHt54-20">
          <mxGeometry y="303" width="230" height="26" as="geometry" />
        </mxCell>
        <mxCell id="axGKSYeIDC3gpvNhHt54-33" value="+setPassword(password: String): void" style="text;strokeColor=none;fillColor=none;align=left;verticalAlign=top;spacingLeft=4;spacingRight=4;overflow=hidden;rotatable=0;points=[[0,0.5],[1,0.5]];portConstraint=eastwest;whiteSpace=wrap;html=1;" vertex="1" parent="axGKSYeIDC3gpvNhHt54-20">
          <mxGeometry y="329" width="230" height="26" as="geometry" />
        </mxCell>
        <mxCell id="axGKSYeIDC3gpvNhHt54-34" value="+getEmail(): String" style="text;strokeColor=none;fillColor=none;align=left;verticalAlign=top;spacingLeft=4;spacingRight=4;overflow=hidden;rotatable=0;points=[[0,0.5],[1,0.5]];portConstraint=eastwest;whiteSpace=wrap;html=1;" vertex="1" parent="axGKSYeIDC3gpvNhHt54-20">
          <mxGeometry y="355" width="230" height="26" as="geometry" />
        </mxCell>
        <mxCell id="axGKSYeIDC3gpvNhHt54-35" value="+setEmail(email: String): void" style="text;strokeColor=none;fillColor=none;align=left;verticalAlign=top;spacingLeft=4;spacingRight=4;overflow=hidden;rotatable=0;points=[[0,0.5],[1,0.5]];portConstraint=eastwest;whiteSpace=wrap;html=1;" vertex="1" parent="axGKSYeIDC3gpvNhHt54-20">
          <mxGeometry y="381" width="230" height="26" as="geometry" />
        </mxCell>
        <mxCell id="axGKSYeIDC3gpvNhHt54-36" value="+getId(): Integer" style="text;strokeColor=none;fillColor=none;align=left;verticalAlign=top;spacingLeft=4;spacingRight=4;overflow=hidden;rotatable=0;points=[[0,0.5],[1,0.5]];portConstraint=eastwest;whiteSpace=wrap;html=1;" vertex="1" parent="axGKSYeIDC3gpvNhHt54-20">
          <mxGeometry y="407" width="230" height="26" as="geometry" />
        </mxCell>
        <mxCell id="axGKSYeIDC3gpvNhHt54-37" value="+setId(id: Integer): void&lt;div&gt;&lt;br&gt;&lt;/div&gt;" style="text;strokeColor=none;fillColor=none;align=left;verticalAlign=top;spacingLeft=4;spacingRight=4;overflow=hidden;rotatable=0;points=[[0,0.5],[1,0.5]];portConstraint=eastwest;whiteSpace=wrap;html=1;" vertex="1" parent="axGKSYeIDC3gpvNhHt54-20">
          <mxGeometry y="433" width="230" height="26" as="geometry" />
        </mxCell>
        <mxCell id="axGKSYeIDC3gpvNhHt54-38" value="+getExists(): Boolean" style="text;strokeColor=none;fillColor=none;align=left;verticalAlign=top;spacingLeft=4;spacingRight=4;overflow=hidden;rotatable=0;points=[[0,0.5],[1,0.5]];portConstraint=eastwest;whiteSpace=wrap;html=1;" vertex="1" parent="axGKSYeIDC3gpvNhHt54-20">
          <mxGeometry y="459" width="230" height="26" as="geometry" />
        </mxCell>
        <mxCell id="axGKSYeIDC3gpvNhHt54-39" value="+setExists(exists: Boolean): void" style="text;strokeColor=none;fillColor=none;align=left;verticalAlign=top;spacingLeft=4;spacingRight=4;overflow=hidden;rotatable=0;points=[[0,0.5],[1,0.5]];portConstraint=eastwest;whiteSpace=wrap;html=1;" vertex="1" parent="axGKSYeIDC3gpvNhHt54-20">
          <mxGeometry y="485" width="230" height="26" as="geometry" />
        </mxCell>
        <mxCell id="axGKSYeIDC3gpvNhHt54-40" value="+getRole() : String" style="text;strokeColor=none;fillColor=none;align=left;verticalAlign=top;spacingLeft=4;spacingRight=4;overflow=hidden;rotatable=0;points=[[0,0.5],[1,0.5]];portConstraint=eastwest;whiteSpace=wrap;html=1;" vertex="1" parent="axGKSYeIDC3gpvNhHt54-20">
          <mxGeometry y="511" width="230" height="26" as="geometry" />
        </mxCell>
        <mxCell id="axGKSYeIDC3gpvNhHt54-41" value="+setRole(role String): void" style="text;strokeColor=none;fillColor=none;align=left;verticalAlign=top;spacingLeft=4;spacingRight=4;overflow=hidden;rotatable=0;points=[[0,0.5],[1,0.5]];portConstraint=eastwest;whiteSpace=wrap;html=1;" vertex="1" parent="axGKSYeIDC3gpvNhHt54-20">
          <mxGeometry y="537" width="230" height="26" as="geometry" />
        </mxCell>
        <mxCell id="axGKSYeIDC3gpvNhHt54-42" value="+getChosenStory(): Story:&amp;nbsp;" style="text;strokeColor=none;fillColor=none;align=left;verticalAlign=top;spacingLeft=4;spacingRight=4;overflow=hidden;rotatable=0;points=[[0,0.5],[1,0.5]];portConstraint=eastwest;whiteSpace=wrap;html=1;" vertex="1" parent="axGKSYeIDC3gpvNhHt54-20">
          <mxGeometry y="563" width="230" height="26" as="geometry" />
        </mxCell>
        <mxCell id="axGKSYeIDC3gpvNhHt54-43" value="+ method(type): type" style="text;strokeColor=none;fillColor=none;align=left;verticalAlign=top;spacingLeft=4;spacingRight=4;overflow=hidden;rotatable=0;points=[[0,0.5],[1,0.5]];portConstraint=eastwest;whiteSpace=wrap;html=1;" vertex="1" parent="axGKSYeIDC3gpvNhHt54-20">
          <mxGeometry y="589" width="230" height="26" as="geometry" />
        </mxCell>
        <mxCell id="axGKSYeIDC3gpvNhHt54-44" value="&amp;lt;&amp;lt;Controller&amp;gt;&amp;gt;&lt;div&gt;StoryController&lt;/div&gt;" style="swimlane;fontStyle=1;align=center;verticalAlign=top;childLayout=stackLayout;horizontal=1;startSize=38;horizontalStack=0;resizeParent=1;resizeParentMax=0;resizeLast=0;collapsible=1;marginBottom=0;whiteSpace=wrap;html=1;fillColor=#FF6666;" vertex="1" parent="1">
          <mxGeometry x="-6191" y="-1990" width="160" height="98" as="geometry" />
        </mxCell>
        <mxCell id="axGKSYeIDC3gpvNhHt54-45" value="" style="line;strokeWidth=1;fillColor=none;align=left;verticalAlign=middle;spacingTop=-1;spacingLeft=3;spacingRight=3;rotatable=0;labelPosition=right;points=[];portConstraint=eastwest;strokeColor=inherit;" vertex="1" parent="axGKSYeIDC3gpvNhHt54-44">
          <mxGeometry y="38" width="160" height="8" as="geometry" />
        </mxCell>
        <mxCell id="axGKSYeIDC3gpvNhHt54-46" value="+ choose_story(): Story" style="text;strokeColor=none;fillColor=none;align=left;verticalAlign=top;spacingLeft=4;spacingRight=4;overflow=hidden;rotatable=0;points=[[0,0.5],[1,0.5]];portConstraint=eastwest;whiteSpace=wrap;html=1;" vertex="1" parent="axGKSYeIDC3gpvNhHt54-44">
          <mxGeometry y="46" width="160" height="26" as="geometry" />
        </mxCell>
        <mxCell id="axGKSYeIDC3gpvNhHt54-47" value="+browse_panels(): Panel" style="text;strokeColor=none;fillColor=none;align=left;verticalAlign=top;spacingLeft=4;spacingRight=4;overflow=hidden;rotatable=0;points=[[0,0.5],[1,0.5]];portConstraint=eastwest;whiteSpace=wrap;html=1;" vertex="1" parent="axGKSYeIDC3gpvNhHt54-44">
          <mxGeometry y="72" width="160" height="26" as="geometry" />
        </mxCell>
        <mxCell id="axGKSYeIDC3gpvNhHt54-48" value="" style="endArrow=open;endFill=1;endSize=12;html=1;rounded=0;exitX=1;exitY=0.5;exitDx=0;exitDy=0;entryX=0;entryY=0.5;entryDx=0;entryDy=0;" edge="1" parent="1" source="axGKSYeIDC3gpvNhHt54-46" target="axGKSYeIDC3gpvNhHt54-32">
          <mxGeometry width="160" relative="1" as="geometry">
            <mxPoint x="-5596" y="-2776" as="sourcePoint" />
            <mxPoint x="-4534" y="-2216" as="targetPoint" />
          </mxGeometry>
        </mxCell>
        <mxCell id="axGKSYeIDC3gpvNhHt54-49" value="&amp;lt;&amp;lt;Boundary&amp;gt;&amp;gt;&lt;div&gt;StoryOptionsUI&lt;/div&gt;" style="swimlane;fontStyle=1;align=center;verticalAlign=top;childLayout=stackLayout;horizontal=1;startSize=40;horizontalStack=0;resizeParent=1;resizeParentMax=0;resizeLast=0;collapsible=1;marginBottom=0;whiteSpace=wrap;html=1;fillColor=#CCCCFF;" vertex="1" parent="1">
          <mxGeometry x="-6191" y="-1830" width="174" height="572" as="geometry" />
        </mxCell>
        <mxCell id="axGKSYeIDC3gpvNhHt54-50" value="+lblStories: label" style="text;strokeColor=none;fillColor=none;align=left;verticalAlign=top;spacingLeft=4;spacingRight=4;overflow=hidden;rotatable=0;points=[[0,0.5],[1,0.5]];portConstraint=eastwest;whiteSpace=wrap;html=1;" vertex="1" parent="axGKSYeIDC3gpvNhHt54-49">
          <mxGeometry y="40" width="174" height="26" as="geometry" />
        </mxCell>
        <mxCell id="axGKSYeIDC3gpvNhHt54-51" value="+btnSettings: button" style="text;strokeColor=none;fillColor=none;align=left;verticalAlign=top;spacingLeft=4;spacingRight=4;overflow=hidden;rotatable=0;points=[[0,0.5],[1,0.5]];portConstraint=eastwest;whiteSpace=wrap;html=1;" vertex="1" parent="axGKSYeIDC3gpvNhHt54-49">
          <mxGeometry y="66" width="174" height="26" as="geometry" />
        </mxCell>
        <mxCell id="axGKSYeIDC3gpvNhHt54-52" value="+btnLogout: button" style="text;strokeColor=none;fillColor=none;align=left;verticalAlign=top;spacingLeft=4;spacingRight=4;overflow=hidden;rotatable=0;points=[[0,0.5],[1,0.5]];portConstraint=eastwest;whiteSpace=wrap;html=1;" vertex="1" parent="axGKSYeIDC3gpvNhHt54-49">
          <mxGeometry y="92" width="174" height="26" as="geometry" />
        </mxCell>
        <mxCell id="axGKSYeIDC3gpvNhHt54-53" value="+lblStoryName1: label" style="text;strokeColor=none;fillColor=none;align=left;verticalAlign=top;spacingLeft=4;spacingRight=4;overflow=hidden;rotatable=0;points=[[0,0.5],[1,0.5]];portConstraint=eastwest;whiteSpace=wrap;html=1;" vertex="1" parent="axGKSYeIDC3gpvNhHt54-49">
          <mxGeometry y="118" width="174" height="26" as="geometry" />
        </mxCell>
        <mxCell id="axGKSYeIDC3gpvNhHt54-54" value="+lblStoryName2: label" style="text;strokeColor=none;fillColor=none;align=left;verticalAlign=top;spacingLeft=4;spacingRight=4;overflow=hidden;rotatable=0;points=[[0,0.5],[1,0.5]];portConstraint=eastwest;whiteSpace=wrap;html=1;" vertex="1" parent="axGKSYeIDC3gpvNhHt54-49">
          <mxGeometry y="144" width="174" height="26" as="geometry" />
        </mxCell>
        <mxCell id="axGKSYeIDC3gpvNhHt54-55" value="+lblStoryName3: label" style="text;strokeColor=none;fillColor=none;align=left;verticalAlign=top;spacingLeft=4;spacingRight=4;overflow=hidden;rotatable=0;points=[[0,0.5],[1,0.5]];portConstraint=eastwest;whiteSpace=wrap;html=1;" vertex="1" parent="axGKSYeIDC3gpvNhHt54-49">
          <mxGeometry y="170" width="174" height="26" as="geometry" />
        </mxCell>
        <mxCell id="axGKSYeIDC3gpvNhHt54-56" value="+imgStoryCover1: image" style="text;strokeColor=none;fillColor=none;align=left;verticalAlign=top;spacingLeft=4;spacingRight=4;overflow=hidden;rotatable=0;points=[[0,0.5],[1,0.5]];portConstraint=eastwest;whiteSpace=wrap;html=1;" vertex="1" parent="axGKSYeIDC3gpvNhHt54-49">
          <mxGeometry y="196" width="174" height="26" as="geometry" />
        </mxCell>
        <mxCell id="axGKSYeIDC3gpvNhHt54-57" value="+imgStoryCover2: image" style="text;strokeColor=none;fillColor=none;align=left;verticalAlign=top;spacingLeft=4;spacingRight=4;overflow=hidden;rotatable=0;points=[[0,0.5],[1,0.5]];portConstraint=eastwest;whiteSpace=wrap;html=1;" vertex="1" parent="axGKSYeIDC3gpvNhHt54-49">
          <mxGeometry y="222" width="174" height="26" as="geometry" />
        </mxCell>
        <mxCell id="axGKSYeIDC3gpvNhHt54-58" value="+imgStoryCover3: image" style="text;strokeColor=none;fillColor=none;align=left;verticalAlign=top;spacingLeft=4;spacingRight=4;overflow=hidden;rotatable=0;points=[[0,0.5],[1,0.5]];portConstraint=eastwest;whiteSpace=wrap;html=1;" vertex="1" parent="axGKSYeIDC3gpvNhHt54-49">
          <mxGeometry y="248" width="174" height="26" as="geometry" />
        </mxCell>
        <mxCell id="axGKSYeIDC3gpvNhHt54-59" value="+txtStoryContent1: text" style="text;strokeColor=none;fillColor=none;align=left;verticalAlign=top;spacingLeft=4;spacingRight=4;overflow=hidden;rotatable=0;points=[[0,0.5],[1,0.5]];portConstraint=eastwest;whiteSpace=wrap;html=1;" vertex="1" parent="axGKSYeIDC3gpvNhHt54-49">
          <mxGeometry y="274" width="174" height="26" as="geometry" />
        </mxCell>
        <mxCell id="axGKSYeIDC3gpvNhHt54-60" value="+txtStoryContent2: text" style="text;strokeColor=none;fillColor=none;align=left;verticalAlign=top;spacingLeft=4;spacingRight=4;overflow=hidden;rotatable=0;points=[[0,0.5],[1,0.5]];portConstraint=eastwest;whiteSpace=wrap;html=1;" vertex="1" parent="axGKSYeIDC3gpvNhHt54-49">
          <mxGeometry y="300" width="174" height="26" as="geometry" />
        </mxCell>
        <mxCell id="axGKSYeIDC3gpvNhHt54-61" value="+txtStoryContent1: text" style="text;strokeColor=none;fillColor=none;align=left;verticalAlign=top;spacingLeft=4;spacingRight=4;overflow=hidden;rotatable=0;points=[[0,0.5],[1,0.5]];portConstraint=eastwest;whiteSpace=wrap;html=1;" vertex="1" parent="axGKSYeIDC3gpvNhHt54-49">
          <mxGeometry y="326" width="174" height="26" as="geometry" />
        </mxCell>
        <mxCell id="axGKSYeIDC3gpvNhHt54-62" value="+btnDownArrow: button" style="text;strokeColor=none;fillColor=none;align=left;verticalAlign=top;spacingLeft=4;spacingRight=4;overflow=hidden;rotatable=0;points=[[0,0.5],[1,0.5]];portConstraint=eastwest;whiteSpace=wrap;html=1;" vertex="1" parent="axGKSYeIDC3gpvNhHt54-49">
          <mxGeometry y="352" width="174" height="26" as="geometry" />
        </mxCell>
        <mxCell id="axGKSYeIDC3gpvNhHt54-63" value="+btnRightArrow1: button" style="text;strokeColor=none;fillColor=none;align=left;verticalAlign=top;spacingLeft=4;spacingRight=4;overflow=hidden;rotatable=0;points=[[0,0.5],[1,0.5]];portConstraint=eastwest;whiteSpace=wrap;html=1;" vertex="1" parent="axGKSYeIDC3gpvNhHt54-49">
          <mxGeometry y="378" width="174" height="26" as="geometry" />
        </mxCell>
        <mxCell id="axGKSYeIDC3gpvNhHt54-64" value="+btnRightArrow2: button" style="text;strokeColor=none;fillColor=none;align=left;verticalAlign=top;spacingLeft=4;spacingRight=4;overflow=hidden;rotatable=0;points=[[0,0.5],[1,0.5]];portConstraint=eastwest;whiteSpace=wrap;html=1;" vertex="1" parent="axGKSYeIDC3gpvNhHt54-49">
          <mxGeometry y="404" width="174" height="26" as="geometry" />
        </mxCell>
        <mxCell id="axGKSYeIDC3gpvNhHt54-65" value="+btnRightArrow3: button" style="text;strokeColor=none;fillColor=none;align=left;verticalAlign=top;spacingLeft=4;spacingRight=4;overflow=hidden;rotatable=0;points=[[0,0.5],[1,0.5]];portConstraint=eastwest;whiteSpace=wrap;html=1;" vertex="1" parent="axGKSYeIDC3gpvNhHt54-49">
          <mxGeometry y="430" width="174" height="26" as="geometry" />
        </mxCell>
        <mxCell id="axGKSYeIDC3gpvNhHt54-66" value="" style="line;strokeWidth=1;fillColor=none;align=left;verticalAlign=middle;spacingTop=-1;spacingLeft=3;spacingRight=3;rotatable=0;labelPosition=right;points=[];portConstraint=eastwest;strokeColor=inherit;" vertex="1" parent="axGKSYeIDC3gpvNhHt54-49">
          <mxGeometry y="456" width="174" height="8" as="geometry" />
        </mxCell>
        <mxCell id="axGKSYeIDC3gpvNhHt54-67" value="+btnRightArrow1Press(): void" style="text;strokeColor=none;fillColor=none;align=left;verticalAlign=top;spacingLeft=4;spacingRight=4;overflow=hidden;rotatable=0;points=[[0,0.5],[1,0.5]];portConstraint=eastwest;whiteSpace=wrap;html=1;" vertex="1" parent="axGKSYeIDC3gpvNhHt54-49">
          <mxGeometry y="464" width="174" height="30" as="geometry" />
        </mxCell>
        <mxCell id="axGKSYeIDC3gpvNhHt54-68" value="+btnRightArrow2Press(): void" style="text;strokeColor=none;fillColor=none;align=left;verticalAlign=top;spacingLeft=4;spacingRight=4;overflow=hidden;rotatable=0;points=[[0,0.5],[1,0.5]];portConstraint=eastwest;whiteSpace=wrap;html=1;" vertex="1" parent="axGKSYeIDC3gpvNhHt54-49">
          <mxGeometry y="494" width="174" height="26" as="geometry" />
        </mxCell>
        <mxCell id="axGKSYeIDC3gpvNhHt54-69" value="+btnRightArr&lt;span style=&quot;color: rgba(0, 0, 0, 0); font-family: monospace; font-size: 0px; text-wrap-mode: nowrap;&quot;&gt;%3CmxGraphModel%3E%3Croot%3E%3CmxCell%20id%3D%220%22%2F%3E%3CmxCell%20id%3D%221%22%20parent%3D%220%22%2F%3E%3CmxCell%20id%3D%222%22%20value%3D%22%2BbtnRightArrow1Press()%3A%20void%22%20style%3D%22text%3BstrokeColor%3Dnone%3BfillColor%3Dnone%3Balign%3Dleft%3BverticalAlign%3Dtop%3BspacingLeft%3D4%3BspacingRight%3D4%3Boverflow%3Dhidden%3Brotatable%3D0%3Bpoints%3D%5B%5B0%2C0.5%5D%2C%5B1%2C0.5%5D%5D%3BportConstraint%3Deastwest%3BwhiteSpace%3Dwrap%3Bhtml%3D1%3B%22%20vertex%3D%221%22%20parent%3D%221%22%3E%3CmxGeometry%20x%3D%22-3084%22%20y%3D%22-1960%22%20width%3D%22174%22%20height%3D%2226%22%20as%3D%22geometry%22%2F%3E%3C%2FmxCell%3E%3C%2Froot%3E%3C%2FmxGraphModel%3E&lt;/span&gt;ow3Press(): void" style="text;strokeColor=none;fillColor=none;align=left;verticalAlign=top;spacingLeft=4;spacingRight=4;overflow=hidden;rotatable=0;points=[[0,0.5],[1,0.5]];portConstraint=eastwest;whiteSpace=wrap;html=1;" vertex="1" parent="axGKSYeIDC3gpvNhHt54-49">
          <mxGeometry y="520" width="174" height="26" as="geometry" />
        </mxCell>
        <mxCell id="axGKSYeIDC3gpvNhHt54-70" value="+btnDownArrowPress(): void" style="text;strokeColor=none;fillColor=none;align=left;verticalAlign=top;spacingLeft=4;spacingRight=4;overflow=hidden;rotatable=0;points=[[0,0.5],[1,0.5]];portConstraint=eastwest;whiteSpace=wrap;html=1;" vertex="1" parent="axGKSYeIDC3gpvNhHt54-49">
          <mxGeometry y="546" width="174" height="26" as="geometry" />
        </mxCell>
        <mxCell id="axGKSYeIDC3gpvNhHt54-71" value="" style="endArrow=open;endFill=1;endSize=12;html=1;rounded=0;entryX=0.575;entryY=0.827;entryDx=0;entryDy=0;entryPerimeter=0;exitX=0.5;exitY=0;exitDx=0;exitDy=0;" edge="1" parent="1" source="axGKSYeIDC3gpvNhHt54-49" target="axGKSYeIDC3gpvNhHt54-47">
          <mxGeometry width="160" relative="1" as="geometry">
            <mxPoint x="-5829" y="-2511" as="sourcePoint" />
            <mxPoint x="-5829" y="-2597" as="targetPoint" />
            <Array as="points" />
          </mxGeometry>
        </mxCell>
        <mxCell id="axGKSYeIDC3gpvNhHt54-72" value="&amp;lt;&amp;lt;Entity&amp;gt;&amp;gt;&lt;div&gt;Story&lt;/div&gt;" style="swimlane;fontStyle=1;align=center;verticalAlign=top;childLayout=stackLayout;horizontal=1;startSize=39;horizontalStack=0;resizeParent=1;resizeParentMax=0;resizeLast=0;collapsible=1;marginBottom=0;whiteSpace=wrap;html=1;fillColor=#9AC7BF;" vertex="1" parent="1">
          <mxGeometry x="-6461" y="-1997.5" width="220" height="463" as="geometry" />
        </mxCell>
        <mxCell id="axGKSYeIDC3gpvNhHt54-73" value="+chosen: Boolean" style="text;strokeColor=none;fillColor=none;align=left;verticalAlign=top;spacingLeft=4;spacingRight=4;overflow=hidden;rotatable=0;points=[[0,0.5],[1,0.5]];portConstraint=eastwest;whiteSpace=wrap;html=1;" vertex="1" parent="axGKSYeIDC3gpvNhHt54-72">
          <mxGeometry y="39" width="220" height="26" as="geometry" />
        </mxCell>
        <mxCell id="axGKSYeIDC3gpvNhHt54-74" value="+id: Integer" style="text;strokeColor=none;fillColor=none;align=left;verticalAlign=top;spacingLeft=4;spacingRight=4;overflow=hidden;rotatable=0;points=[[0,0.5],[1,0.5]];portConstraint=eastwest;whiteSpace=wrap;html=1;" vertex="1" parent="axGKSYeIDC3gpvNhHt54-72">
          <mxGeometry y="65" width="220" height="26" as="geometry" />
        </mxCell>
        <mxCell id="axGKSYeIDC3gpvNhHt54-75" value="&lt;div&gt;+title: String&lt;/div&gt;" style="text;strokeColor=none;fillColor=none;align=left;verticalAlign=top;spacingLeft=4;spacingRight=4;overflow=hidden;rotatable=0;points=[[0,0.5],[1,0.5]];portConstraint=eastwest;whiteSpace=wrap;html=1;" vertex="1" parent="axGKSYeIDC3gpvNhHt54-72">
          <mxGeometry y="91" width="220" height="26" as="geometry" />
        </mxCell>
        <mxCell id="axGKSYeIDC3gpvNhHt54-76" value="&lt;div&gt;+panels: List&amp;lt;Panel&amp;gt;&lt;/div&gt;" style="text;strokeColor=none;fillColor=none;align=left;verticalAlign=top;spacingLeft=4;spacingRight=4;overflow=hidden;rotatable=0;points=[[0,0.5],[1,0.5]];portConstraint=eastwest;whiteSpace=wrap;html=1;" vertex="1" parent="axGKSYeIDC3gpvNhHt54-72">
          <mxGeometry y="117" width="220" height="26" as="geometry" />
        </mxCell>
        <mxCell id="axGKSYeIDC3gpvNhHt54-77" value="&lt;div&gt;+riddles: List&amp;lt;Riddle&amp;gt;&lt;/div&gt;" style="text;strokeColor=none;fillColor=none;align=left;verticalAlign=top;spacingLeft=4;spacingRight=4;overflow=hidden;rotatable=0;points=[[0,0.5],[1,0.5]];portConstraint=eastwest;whiteSpace=wrap;html=1;" vertex="1" parent="axGKSYeIDC3gpvNhHt54-72">
          <mxGeometry y="143" width="220" height="26" as="geometry" />
        </mxCell>
        <mxCell id="axGKSYeIDC3gpvNhHt54-78" value="" style="line;strokeWidth=1;fillColor=none;align=left;verticalAlign=middle;spacingTop=-1;spacingLeft=3;spacingRight=3;rotatable=0;labelPosition=right;points=[];portConstraint=eastwest;strokeColor=inherit;" vertex="1" parent="axGKSYeIDC3gpvNhHt54-72">
          <mxGeometry y="169" width="220" height="8" as="geometry" />
        </mxCell>
        <mxCell id="axGKSYeIDC3gpvNhHt54-79" value="+Story(): void" style="text;strokeColor=none;fillColor=none;align=left;verticalAlign=top;spacingLeft=4;spacingRight=4;overflow=hidden;rotatable=0;points=[[0,0.5],[1,0.5]];portConstraint=eastwest;whiteSpace=wrap;html=1;" vertex="1" parent="axGKSYeIDC3gpvNhHt54-72">
          <mxGeometry y="177" width="220" height="26" as="geometry" />
        </mxCell>
        <mxCell id="axGKSYeIDC3gpvNhHt54-80" value="+getChosen(): Boolean" style="text;strokeColor=none;fillColor=none;align=left;verticalAlign=top;spacingLeft=4;spacingRight=4;overflow=hidden;rotatable=0;points=[[0,0.5],[1,0.5]];portConstraint=eastwest;whiteSpace=wrap;html=1;" vertex="1" parent="axGKSYeIDC3gpvNhHt54-72">
          <mxGeometry y="203" width="220" height="26" as="geometry" />
        </mxCell>
        <mxCell id="axGKSYeIDC3gpvNhHt54-81" value="+setChosen(chosen: Boolean): void" style="text;strokeColor=none;fillColor=none;align=left;verticalAlign=top;spacingLeft=4;spacingRight=4;overflow=hidden;rotatable=0;points=[[0,0.5],[1,0.5]];portConstraint=eastwest;whiteSpace=wrap;html=1;" vertex="1" parent="axGKSYeIDC3gpvNhHt54-72">
          <mxGeometry y="229" width="220" height="26" as="geometry" />
        </mxCell>
        <mxCell id="axGKSYeIDC3gpvNhHt54-82" value="+getId(): Integer" style="text;strokeColor=none;fillColor=none;align=left;verticalAlign=top;spacingLeft=4;spacingRight=4;overflow=hidden;rotatable=0;points=[[0,0.5],[1,0.5]];portConstraint=eastwest;whiteSpace=wrap;html=1;" vertex="1" parent="axGKSYeIDC3gpvNhHt54-72">
          <mxGeometry y="255" width="220" height="26" as="geometry" />
        </mxCell>
        <mxCell id="axGKSYeIDC3gpvNhHt54-83" value="+setId(id: Integer): void" style="text;strokeColor=none;fillColor=none;align=left;verticalAlign=top;spacingLeft=4;spacingRight=4;overflow=hidden;rotatable=0;points=[[0,0.5],[1,0.5]];portConstraint=eastwest;whiteSpace=wrap;html=1;" vertex="1" parent="axGKSYeIDC3gpvNhHt54-72">
          <mxGeometry y="281" width="220" height="26" as="geometry" />
        </mxCell>
        <mxCell id="axGKSYeIDC3gpvNhHt54-84" value="+getTitle(): String" style="text;strokeColor=none;fillColor=none;align=left;verticalAlign=top;spacingLeft=4;spacingRight=4;overflow=hidden;rotatable=0;points=[[0,0.5],[1,0.5]];portConstraint=eastwest;whiteSpace=wrap;html=1;" vertex="1" parent="axGKSYeIDC3gpvNhHt54-72">
          <mxGeometry y="307" width="220" height="26" as="geometry" />
        </mxCell>
        <mxCell id="axGKSYeIDC3gpvNhHt54-85" value="+setTitle(title: String): void" style="text;strokeColor=none;fillColor=none;align=left;verticalAlign=top;spacingLeft=4;spacingRight=4;overflow=hidden;rotatable=0;points=[[0,0.5],[1,0.5]];portConstraint=eastwest;whiteSpace=wrap;html=1;" vertex="1" parent="axGKSYeIDC3gpvNhHt54-72">
          <mxGeometry y="333" width="220" height="26" as="geometry" />
        </mxCell>
        <mxCell id="axGKSYeIDC3gpvNhHt54-86" value="+getPanels(): List&amp;lt;Panel&amp;gt;" style="text;strokeColor=none;fillColor=none;align=left;verticalAlign=top;spacingLeft=4;spacingRight=4;overflow=hidden;rotatable=0;points=[[0,0.5],[1,0.5]];portConstraint=eastwest;whiteSpace=wrap;html=1;" vertex="1" parent="axGKSYeIDC3gpvNhHt54-72">
          <mxGeometry y="359" width="220" height="26" as="geometry" />
        </mxCell>
        <mxCell id="axGKSYeIDC3gpvNhHt54-87" value="+setPanels(panels: List&amp;lt;Panel&amp;gt;): void" style="text;strokeColor=none;fillColor=none;align=left;verticalAlign=top;spacingLeft=4;spacingRight=4;overflow=hidden;rotatable=0;points=[[0,0.5],[1,0.5]];portConstraint=eastwest;whiteSpace=wrap;html=1;" vertex="1" parent="axGKSYeIDC3gpvNhHt54-72">
          <mxGeometry y="385" width="220" height="26" as="geometry" />
        </mxCell>
        <mxCell id="axGKSYeIDC3gpvNhHt54-88" value="+getRiddles(): List&amp;lt;Riddle&amp;gt;" style="text;strokeColor=none;fillColor=none;align=left;verticalAlign=top;spacingLeft=4;spacingRight=4;overflow=hidden;rotatable=0;points=[[0,0.5],[1,0.5]];portConstraint=eastwest;whiteSpace=wrap;html=1;" vertex="1" parent="axGKSYeIDC3gpvNhHt54-72">
          <mxGeometry y="411" width="220" height="26" as="geometry" />
        </mxCell>
        <mxCell id="axGKSYeIDC3gpvNhHt54-89" value="+setRiddles(riddle: List&amp;lt;Riddle&amp;gt;): void" style="text;strokeColor=none;fillColor=none;align=left;verticalAlign=top;spacingLeft=4;spacingRight=4;overflow=hidden;rotatable=0;points=[[0,0.5],[1,0.5]];portConstraint=eastwest;whiteSpace=wrap;html=1;" vertex="1" parent="axGKSYeIDC3gpvNhHt54-72">
          <mxGeometry y="437" width="220" height="26" as="geometry" />
        </mxCell>
        <mxCell id="axGKSYeIDC3gpvNhHt54-90" value="" style="endArrow=open;endFill=1;endSize=12;html=1;rounded=0;entryX=1;entryY=0.5;entryDx=0;entryDy=0;exitX=0.57;exitY=1.011;exitDx=0;exitDy=0;exitPerimeter=0;" edge="1" parent="1" source="axGKSYeIDC3gpvNhHt54-47" target="axGKSYeIDC3gpvNhHt54-76">
          <mxGeometry width="160" relative="1" as="geometry">
            <mxPoint x="-6089" y="-2020" as="sourcePoint" />
            <mxPoint x="-6089" y="-2116" as="targetPoint" />
            <Array as="points" />
          </mxGeometry>
        </mxCell>
        <mxCell id="axGKSYeIDC3gpvNhHt54-91" value="&lt;div&gt;&amp;lt;&amp;lt;Boundary&amp;gt;&amp;gt;&lt;/div&gt;StoryPanelUI" style="swimlane;fontStyle=1;align=center;verticalAlign=top;childLayout=stackLayout;horizontal=1;startSize=39;horizontalStack=0;resizeParent=1;resizeParentMax=0;resizeLast=0;collapsible=1;marginBottom=0;whiteSpace=wrap;html=1;fillColor=#CCCCFF;" vertex="1" parent="1">
          <mxGeometry x="-5998" y="-1820" width="204" height="255" as="geometry" />
        </mxCell>
        <mxCell id="axGKSYeIDC3gpvNhHt54-92" value="+btnLeftArrow: button" style="text;strokeColor=none;fillColor=none;align=left;verticalAlign=top;spacingLeft=4;spacingRight=4;overflow=hidden;rotatable=0;points=[[0,0.5],[1,0.5]];portConstraint=eastwest;whiteSpace=wrap;html=1;" vertex="1" parent="axGKSYeIDC3gpvNhHt54-91">
          <mxGeometry y="39" width="204" height="26" as="geometry" />
        </mxCell>
        <mxCell id="axGKSYeIDC3gpvNhHt54-93" value="+btnRightArrow: button" style="text;strokeColor=none;fillColor=none;align=left;verticalAlign=top;spacingLeft=4;spacingRight=4;overflow=hidden;rotatable=0;points=[[0,0.5],[1,0.5]];portConstraint=eastwest;whiteSpace=wrap;html=1;" vertex="1" parent="axGKSYeIDC3gpvNhHt54-91">
          <mxGeometry y="65" width="204" height="26" as="geometry" />
        </mxCell>
        <mxCell id="axGKSYeIDC3gpvNhHt54-94" value="+btnReturnHome: button" style="text;strokeColor=none;fillColor=none;align=left;verticalAlign=top;spacingLeft=4;spacingRight=4;overflow=hidden;rotatable=0;points=[[0,0.5],[1,0.5]];portConstraint=eastwest;whiteSpace=wrap;html=1;" vertex="1" parent="axGKSYeIDC3gpvNhHt54-91">
          <mxGeometry y="91" width="204" height="26" as="geometry" />
        </mxCell>
        <mxCell id="axGKSYeIDC3gpvNhHt54-95" value="+imgRightPanel: image" style="text;strokeColor=none;fillColor=none;align=left;verticalAlign=top;spacingLeft=4;spacingRight=4;overflow=hidden;rotatable=0;points=[[0,0.5],[1,0.5]];portConstraint=eastwest;whiteSpace=wrap;html=1;" vertex="1" parent="axGKSYeIDC3gpvNhHt54-91">
          <mxGeometry y="117" width="204" height="26" as="geometry" />
        </mxCell>
        <mxCell id="axGKSYeIDC3gpvNhHt54-96" value="+imgLeftPanel: image" style="text;strokeColor=none;fillColor=none;align=left;verticalAlign=top;spacingLeft=4;spacingRight=4;overflow=hidden;rotatable=0;points=[[0,0.5],[1,0.5]];portConstraint=eastwest;whiteSpace=wrap;html=1;" vertex="1" parent="axGKSYeIDC3gpvNhHt54-91">
          <mxGeometry y="143" width="204" height="26" as="geometry" />
        </mxCell>
        <mxCell id="axGKSYeIDC3gpvNhHt54-97" value="" style="line;strokeWidth=1;fillColor=none;align=left;verticalAlign=middle;spacingTop=-1;spacingLeft=3;spacingRight=3;rotatable=0;labelPosition=right;points=[];portConstraint=eastwest;strokeColor=inherit;" vertex="1" parent="axGKSYeIDC3gpvNhHt54-91">
          <mxGeometry y="169" width="204" height="8" as="geometry" />
        </mxCell>
        <mxCell id="axGKSYeIDC3gpvNhHt54-98" value="+btnLeftArrowPress(): void" style="text;strokeColor=none;fillColor=none;align=left;verticalAlign=top;spacingLeft=4;spacingRight=4;overflow=hidden;rotatable=0;points=[[0,0.5],[1,0.5]];portConstraint=eastwest;whiteSpace=wrap;html=1;" vertex="1" parent="axGKSYeIDC3gpvNhHt54-91">
          <mxGeometry y="177" width="204" height="26" as="geometry" />
        </mxCell>
        <mxCell id="axGKSYeIDC3gpvNhHt54-99" value="+btnRightArrowPress(): void" style="text;strokeColor=none;fillColor=none;align=left;verticalAlign=top;spacingLeft=4;spacingRight=4;overflow=hidden;rotatable=0;points=[[0,0.5],[1,0.5]];portConstraint=eastwest;whiteSpace=wrap;html=1;" vertex="1" parent="axGKSYeIDC3gpvNhHt54-91">
          <mxGeometry y="203" width="204" height="26" as="geometry" />
        </mxCell>
        <mxCell id="axGKSYeIDC3gpvNhHt54-100" value="+btnReturnHomePress(): void" style="text;strokeColor=none;fillColor=none;align=left;verticalAlign=top;spacingLeft=4;spacingRight=4;overflow=hidden;rotatable=0;points=[[0,0.5],[1,0.5]];portConstraint=eastwest;whiteSpace=wrap;html=1;" vertex="1" parent="axGKSYeIDC3gpvNhHt54-91">
          <mxGeometry y="229" width="204" height="26" as="geometry" />
        </mxCell>
        <mxCell id="axGKSYeIDC3gpvNhHt54-101" value="" style="endArrow=open;endFill=1;endSize=12;html=1;rounded=0;exitX=0.5;exitY=0;exitDx=0;exitDy=0;entryX=0.571;entryY=0.971;entryDx=0;entryDy=0;entryPerimeter=0;" edge="1" parent="1" source="axGKSYeIDC3gpvNhHt54-91" target="axGKSYeIDC3gpvNhHt54-47">
          <mxGeometry width="160" relative="1" as="geometry">
            <mxPoint x="-6087" y="-2107" as="sourcePoint" />
            <mxPoint x="-6366" y="-2190" as="targetPoint" />
            <Array as="points" />
          </mxGeometry>
        </mxCell>
        <mxCell id="axGKSYeIDC3gpvNhHt54-102" value="&lt;div&gt;&amp;lt;&amp;lt;Entity&amp;gt;&amp;gt;&lt;/div&gt;Panel" style="swimlane;fontStyle=1;align=center;verticalAlign=top;childLayout=stackLayout;horizontal=1;startSize=39;horizontalStack=0;resizeParent=1;resizeParentMax=0;resizeLast=0;collapsible=1;marginBottom=0;whiteSpace=wrap;html=1;fillColor=#9AC7BF;" vertex="1" parent="1">
          <mxGeometry x="-6440" y="-1450" width="204" height="229" as="geometry" />
        </mxCell>
        <mxCell id="axGKSYeIDC3gpvNhHt54-103" value="+id: Integer" style="text;strokeColor=none;fillColor=none;align=left;verticalAlign=top;spacingLeft=4;spacingRight=4;overflow=hidden;rotatable=0;points=[[0,0.5],[1,0.5]];portConstraint=eastwest;whiteSpace=wrap;html=1;" vertex="1" parent="axGKSYeIDC3gpvNhHt54-102">
          <mxGeometry y="39" width="204" height="26" as="geometry" />
        </mxCell>
        <mxCell id="axGKSYeIDC3gpvNhHt54-104" value="+content: Image" style="text;strokeColor=none;fillColor=none;align=left;verticalAlign=top;spacingLeft=4;spacingRight=4;overflow=hidden;rotatable=0;points=[[0,0.5],[1,0.5]];portConstraint=eastwest;whiteSpace=wrap;html=1;" vertex="1" parent="axGKSYeIDC3gpvNhHt54-102">
          <mxGeometry y="65" width="204" height="26" as="geometry" />
        </mxCell>
        <mxCell id="axGKSYeIDC3gpvNhHt54-105" value="" style="line;strokeWidth=1;fillColor=none;align=left;verticalAlign=middle;spacingTop=-1;spacingLeft=3;spacingRight=3;rotatable=0;labelPosition=right;points=[];portConstraint=eastwest;strokeColor=inherit;" vertex="1" parent="axGKSYeIDC3gpvNhHt54-102">
          <mxGeometry y="91" width="204" height="8" as="geometry" />
        </mxCell>
        <mxCell id="axGKSYeIDC3gpvNhHt54-106" value="+Panel(): void" style="text;strokeColor=none;fillColor=none;align=left;verticalAlign=top;spacingLeft=4;spacingRight=4;overflow=hidden;rotatable=0;points=[[0,0.5],[1,0.5]];portConstraint=eastwest;whiteSpace=wrap;html=1;" vertex="1" parent="axGKSYeIDC3gpvNhHt54-102">
          <mxGeometry y="99" width="204" height="26" as="geometry" />
        </mxCell>
        <mxCell id="axGKSYeIDC3gpvNhHt54-107" value="+getId(): Integer" style="text;strokeColor=none;fillColor=none;align=left;verticalAlign=top;spacingLeft=4;spacingRight=4;overflow=hidden;rotatable=0;points=[[0,0.5],[1,0.5]];portConstraint=eastwest;whiteSpace=wrap;html=1;" vertex="1" parent="axGKSYeIDC3gpvNhHt54-102">
          <mxGeometry y="125" width="204" height="26" as="geometry" />
        </mxCell>
        <mxCell id="axGKSYeIDC3gpvNhHt54-108" value="+setId(id: Integer): void" style="text;strokeColor=none;fillColor=none;align=left;verticalAlign=top;spacingLeft=4;spacingRight=4;overflow=hidden;rotatable=0;points=[[0,0.5],[1,0.5]];portConstraint=eastwest;whiteSpace=wrap;html=1;" vertex="1" parent="axGKSYeIDC3gpvNhHt54-102">
          <mxGeometry y="151" width="204" height="26" as="geometry" />
        </mxCell>
        <mxCell id="axGKSYeIDC3gpvNhHt54-109" value="+setContent(content: Image): void" style="text;strokeColor=none;fillColor=none;align=left;verticalAlign=top;spacingLeft=4;spacingRight=4;overflow=hidden;rotatable=0;points=[[0,0.5],[1,0.5]];portConstraint=eastwest;whiteSpace=wrap;html=1;" vertex="1" parent="axGKSYeIDC3gpvNhHt54-102">
          <mxGeometry y="177" width="204" height="26" as="geometry" />
        </mxCell>
        <mxCell id="axGKSYeIDC3gpvNhHt54-110" value="+getContent(): Image" style="text;strokeColor=none;fillColor=none;align=left;verticalAlign=top;spacingLeft=4;spacingRight=4;overflow=hidden;rotatable=0;points=[[0,0.5],[1,0.5]];portConstraint=eastwest;whiteSpace=wrap;html=1;" vertex="1" parent="axGKSYeIDC3gpvNhHt54-102">
          <mxGeometry y="203" width="204" height="26" as="geometry" />
        </mxCell>
        <mxCell id="axGKSYeIDC3gpvNhHt54-111" value="" style="endArrow=diamondThin;endFill=1;endSize=24;html=1;rounded=0;entryX=0.546;entryY=1.123;entryDx=0;entryDy=0;entryPerimeter=0;exitX=0.5;exitY=0;exitDx=0;exitDy=0;" edge="1" parent="1" source="axGKSYeIDC3gpvNhHt54-102" target="axGKSYeIDC3gpvNhHt54-89">
          <mxGeometry width="160" relative="1" as="geometry">
            <mxPoint x="-5746" y="-1580" as="sourcePoint" />
            <mxPoint x="-5624" y="-1680" as="targetPoint" />
          </mxGeometry>
        </mxCell>
        <mxCell id="axGKSYeIDC3gpvNhHt54-112" value="" style="endArrow=diamondThin;endFill=0;endSize=24;html=1;rounded=0;entryX=0;entryY=0.5;entryDx=0;entryDy=0;exitX=1;exitY=0.5;exitDx=0;exitDy=0;" edge="1" parent="1" source="axGKSYeIDC3gpvNhHt54-18" target="axGKSYeIDC3gpvNhHt54-83">
          <mxGeometry width="160" relative="1" as="geometry">
            <mxPoint x="-6296" y="-1960" as="sourcePoint" />
            <mxPoint x="-6136" y="-1960" as="targetPoint" />
          </mxGeometry>
        </mxCell>
        <mxCell id="axGKSYeIDC3gpvNhHt54-113" value="&amp;lt;&amp;lt;Boundary&amp;gt;&amp;gt;&lt;div&gt;CorrectAnswerPopUp&lt;/div&gt;" style="swimlane;fontStyle=1;align=center;verticalAlign=top;childLayout=stackLayout;horizontal=1;startSize=41;horizontalStack=0;resizeParent=1;resizeParentMax=0;resizeLast=0;collapsible=1;marginBottom=0;whiteSpace=wrap;html=1;fillColor=#CCCCFF;" vertex="1" parent="1">
          <mxGeometry x="-6209" y="-2260" width="210" height="203" as="geometry" />
        </mxCell>
        <mxCell id="axGKSYeIDC3gpvNhHt54-114" value="&lt;div&gt;+btnReturnHome: button&lt;/div&gt;" style="text;strokeColor=none;fillColor=none;align=left;verticalAlign=top;spacingLeft=4;spacingRight=4;overflow=hidden;rotatable=0;points=[[0,0.5],[1,0.5]];portConstraint=eastwest;whiteSpace=wrap;html=1;" vertex="1" parent="axGKSYeIDC3gpvNhHt54-113">
          <mxGeometry y="41" width="210" height="24" as="geometry" />
        </mxCell>
        <mxCell id="axGKSYeIDC3gpvNhHt54-115" value="&lt;div&gt;+lblCongratulations: label&lt;/div&gt;" style="text;strokeColor=none;fillColor=none;align=left;verticalAlign=top;spacingLeft=4;spacingRight=4;overflow=hidden;rotatable=0;points=[[0,0.5],[1,0.5]];portConstraint=eastwest;whiteSpace=wrap;html=1;" vertex="1" parent="axGKSYeIDC3gpvNhHt54-113">
          <mxGeometry y="65" width="210" height="26" as="geometry" />
        </mxCell>
        <mxCell id="axGKSYeIDC3gpvNhHt54-116" value="&lt;div&gt;+lblYouSolvedRiddle: label&lt;/div&gt;" style="text;strokeColor=none;fillColor=none;align=left;verticalAlign=top;spacingLeft=4;spacingRight=4;overflow=hidden;rotatable=0;points=[[0,0.5],[1,0.5]];portConstraint=eastwest;whiteSpace=wrap;html=1;" vertex="1" parent="axGKSYeIDC3gpvNhHt54-113">
          <mxGeometry y="91" width="210" height="26" as="geometry" />
        </mxCell>
        <mxCell id="axGKSYeIDC3gpvNhHt54-117" value="&lt;div&gt;+btnContinueStory: button&lt;/div&gt;" style="text;strokeColor=none;fillColor=none;align=left;verticalAlign=top;spacingLeft=4;spacingRight=4;overflow=hidden;rotatable=0;points=[[0,0.5],[1,0.5]];portConstraint=eastwest;whiteSpace=wrap;html=1;" vertex="1" parent="axGKSYeIDC3gpvNhHt54-113">
          <mxGeometry y="117" width="210" height="26" as="geometry" />
        </mxCell>
        <mxCell id="axGKSYeIDC3gpvNhHt54-118" value="" style="line;strokeWidth=1;fillColor=none;align=left;verticalAlign=middle;spacingTop=-1;spacingLeft=3;spacingRight=3;rotatable=0;labelPosition=right;points=[];portConstraint=eastwest;strokeColor=inherit;" vertex="1" parent="axGKSYeIDC3gpvNhHt54-113">
          <mxGeometry y="143" width="210" height="8" as="geometry" />
        </mxCell>
        <mxCell id="axGKSYeIDC3gpvNhHt54-119" value="+btnReturnHomePress(): void" style="text;strokeColor=none;fillColor=none;align=left;verticalAlign=top;spacingLeft=4;spacingRight=4;overflow=hidden;rotatable=0;points=[[0,0.5],[1,0.5]];portConstraint=eastwest;whiteSpace=wrap;html=1;" vertex="1" parent="axGKSYeIDC3gpvNhHt54-113">
          <mxGeometry y="151" width="210" height="26" as="geometry" />
        </mxCell>
        <mxCell id="axGKSYeIDC3gpvNhHt54-120" value="+btnContinueStoryPress(): void" style="text;strokeColor=none;fillColor=none;align=left;verticalAlign=top;spacingLeft=4;spacingRight=4;overflow=hidden;rotatable=0;points=[[0,0.5],[1,0.5]];portConstraint=eastwest;whiteSpace=wrap;html=1;" vertex="1" parent="axGKSYeIDC3gpvNhHt54-113">
          <mxGeometry y="177" width="210" height="26" as="geometry" />
        </mxCell>
        <mxCell id="axGKSYeIDC3gpvNhHt54-121" value="" style="endArrow=open;endFill=1;endSize=12;html=1;rounded=0;exitX=0.467;exitY=0.945;exitDx=0;exitDy=0;entryX=0.5;entryY=0;entryDx=0;entryDy=0;exitPerimeter=0;" edge="1" parent="1" source="axGKSYeIDC3gpvNhHt54-120" target="axGKSYeIDC3gpvNhHt54-44">
          <mxGeometry width="160" relative="1" as="geometry">
            <mxPoint x="-6021" y="-1921" as="sourcePoint" />
            <mxPoint x="-5936" y="-1921" as="targetPoint" />
          </mxGeometry>
        </mxCell>
      </root>
    </mxGraphModel>
  </diagram>
</mxfile>
